<svg xmlns="http://www.w3.org/2000/svg" viewBox="0 0 600 600" width="600" height="600"><rect width="600" height="600" fill="#F7F5F0"/><g stroke="#171029" stroke-width="10" stroke-linecap="round" stroke-linejoin="round" fill="none"><path d="M 120 250 L 120 500 M 480 250 L 480 500"/><circle cx="120" cy="236" r="18" fill="#171029"/><circle cx="480" cy="236" r="18" fill="#171029"/><path d="M 120 268 Q 300 400 480 268" stroke="#F2542D" stroke-width="16"/></g><g transform="rotate(-9 300 170)"><path d="M 176 96 L 424 96 A 20 20 0 0 1 424 136 A 20 20 0 0 0 424 176 A 20 20 0 0 1 424 216 L 176 216 A 20 20 0 0 1 176 176 A 20 20 0 0 0 176 136 A 20 20 0 0 1 176 96 Z" fill="#FFC93C" stroke="#171029" stroke-width="10" stroke-linejoin="round"/><path d="M 300 108 L 300 204" stroke="#171029" stroke-width="8" stroke-dasharray="16 14"/><g stroke="#171029" stroke-width="9" stroke-linecap="round"><path d="M 206 130 L 206 182 M 232 130 L 232 182 M 254 130 L 254 182 M 344 130 L 344 182 M 370 130 L 370 182 M 392 130 L 392 182"/></g></g><g stroke="#171029" stroke-width="9" stroke-linecap="round" fill="none"><path d="M 300 258 L 300 300"/></g></svg>
